<svg width="24" height="24" viewBox="0 0 24 24" fill="none" xmlns="http://www.w3.org/2000/svg">
<path d="M12 23C13.5046 23 14.9214 22.7116 16.2502 22.1348C17.5791 21.565 18.7462 20.7736 19.7517 19.7607C20.7641 18.7477 21.5586 17.58 22.1352 16.2576C22.7117 14.9281 23 13.5071 23 11.9947C23 10.4894 22.7117 9.07546 22.1352 7.753C21.5586 6.4235 20.7641 5.25228 19.7517 4.23933C18.7462 3.22638 17.5756 2.43501 16.2397 1.86523C14.9108 1.28841 13.4941 1 11.9895 1C10.4848 1 9.06807 1.28841 7.73921 1.86523C6.41035 2.43501 5.23969 3.22638 4.22723 4.23933C3.2218 5.25228 2.43081 6.4235 1.85427 7.753C1.28476 9.07546 1 10.4894 1 11.9947C1 13.5071 1.28476 14.9281 1.85427 16.2576C2.43081 17.58 3.22531 18.7477 4.23778 19.7607C5.25024 20.7736 6.4209 21.565 7.74976 22.1348C9.07862 22.7116 10.4954 23 12 23ZM9.60594 17.0489C9.22627 17.0489 8.93448 16.9293 8.73058 16.6902C8.52669 16.451 8.42474 16.1274 8.42474 15.7194V8.31223C8.42474 7.89017 8.52669 7.55955 8.73058 7.32038C8.94151 7.08121 9.25439 6.96163 9.66922 6.96163H12.6539C13.7577 6.96163 14.6437 7.28169 15.3116 7.92182C15.9866 8.56195 16.3241 9.41311 16.3241 10.4753C16.3241 11.5305 15.9866 12.3781 15.3116 13.0182C14.6366 13.6584 13.7437 13.9784 12.6328 13.9784H10.7977V15.7194C10.7977 16.1274 10.6922 16.451 10.4813 16.6902C10.2774 16.9293 9.98562 17.0489 9.60594 17.0489ZM10.7977 12.2269H12.3058C12.8613 12.2269 13.2902 12.0756 13.5925 11.7731C13.9019 11.4636 14.0566 11.031 14.0566 10.4753C14.0566 9.91958 13.9019 9.49049 13.5925 9.18801C13.2832 8.8785 12.8543 8.72374 12.3058 8.72374H10.7977V12.2269Z" fill="#58585E"/>
</svg>
